<?xml version="1.0" standalone="no"?>
<!DOCTYPE svg PUBLIC "-//W3C//DTD SVG 20010904//EN"
 "http://www.w3.org/TR/2001/REC-SVG-20010904/DTD/svg10.dtd">
<svg version="1.0" xmlns="http://www.w3.org/2000/svg"
 width="700.000000pt" height="700.000000pt" viewBox="0 0 700.000000 700.000000"
 preserveAspectRatio="xMidYMid meet">
<metadata>
Created by potrace 1.14, written by Peter Selinger 2001-2017
</metadata>
<g transform="translate(0.000000,700.000000) scale(0.100000,-0.100000)"
fill="#000000" stroke="none">
<path d="M1170 6990 l-645 -5 -63 -26 c-107 -46 -174 -91 -263 -179 -95 -94
-150 -182 -169 -270 -22 -107 -27 -808 -21 -3390 l6 -2605 38 -79 c100 -210
280 -375 442 -406 33 -6 220 -15 415 -20 403 -10 3853 -11 4890 -1 l685 6 72
32 c95 41 186 106 264 191 76 82 110 140 150 259 l29 87 0 2917 c0 1632 -4
2928 -9 2941 -4 13 -17 50 -27 83 -58 185 -286 409 -454 445 -30 6 -218 15
-420 20 -382 10 -3808 10 -4920 0z m1150 -1462 c133 -36 197 -84 394 -297 168
-180 227 -259 247 -328 19 -66 20 -544 1 -588 -22 -52 -44 -59 -187 -63 -147
-4 -208 7 -227 41 -8 14 -15 90 -19 212 -6 181 -7 193 -33 243 -17 34 -68 95
-139 167 -156 157 -128 150 -582 150 l-360 0 -55 -26 c-63 -30 -210 -171 -241
-232 -29 -55 -38 -156 -38 -397 0 -242 8 -339 34 -393 21 -46 120 -154 174
-191 78 -54 107 -57 606 -66 609 -10 578 -1 816 -241 236 -237 286 -310 311
-459 17 -101 17 -784 0 -890 -24 -148 -93 -248 -343 -500 -126 -127 -189 -168
-305 -197 -61 -16 -126 -18 -579 -18 -555 0 -605 4 -712 54 -32 16 -83 49
-113 74 -70 58 -319 327 -371 400 -67 95 -72 116 -77 361 -7 359 0 378 146
391 124 11 237 -2 270 -30 27 -23 27 -23 33 -207 7 -221 12 -237 124 -359 146
-159 188 -189 290 -208 74 -14 694 -14 788 -1 37 6 85 19 105 29 48 24 202
185 226 234 31 67 38 158 34 470 l-3 302 -28 56 c-18 38 -56 84 -116 142 -128
123 -102 118 -631 127 -239 5 -466 13 -505 19 -145 23 -235 90 -475 353 -196
215 -204 242 -204 748 0 546 -1 542 328 878 150 153 197 190 283 222 91 34
171 38 633 36 356 -3 456 -6 500 -18z m3755 3 c243 -32 334 -79 382 -202 16
-39 18 -83 18 -389 0 -473 1 -470 -209 -470 -189 0 -189 -1 -197 299 -9 343 1
334 -331 339 -259 5 -306 -4 -360 -68 -58 -66 -82 -173 -98 -425 -13 -211 -13
-2134 0 -2330 12 -166 30 -269 58 -324 29 -57 66 -69 227 -77 236 -10 240 -14
240 -212 l0 -134 -32 -28 c-59 -53 -90 -55 -763 -55 -673 0 -704 2 -763 55
l-32 28 -3 119 c-7 217 -1 223 235 232 191 8 208 14 241 85 58 122 66 301 66
1481 0 1043 -6 1248 -40 1415 -21 100 -43 148 -87 187 -54 48 -110 56 -352 51
-321 -6 -315 1 -325 -329 -10 -300 -9 -299 -206 -299 -170 0 -187 14 -205 164
-13 115 -11 573 2 638 14 64 39 115 71 145 65 61 215 99 446 113 210 12 1908
5 2017 -9z"/>
</g>
</svg>
