<svg xmlns="http://www.w3.org/2000/svg" width="512" height="512" viewBox="0 0 512 512" version="1.1"><path d="M 63.115 128.250 C 42.055 150.500, 42.055 150.500, 42.074 189.500 C 42.094 228.500, 42.094 228.500, 62.297 249.723 C 82.500 270.945, 82.500 270.945, 124.018 270.973 C 165.536 271, 165.536 271, 175.768 281.267 C 186 291.534, 186 291.534, 186 320.882 C 186 350.231, 186 350.231, 175.750 360.992 C 165.500 371.753, 165.500 371.753, 130.500 371.856 C 95.500 371.960, 95.500 371.960, 83.250 359.063 C 71 346.166, 71 346.166, 71 329.083 C 71 312, 71 312, 54.500 312 C 38 312, 38 312, 38 336.963 C 38 361.927, 38 361.927, 58.750 383.929 C 79.500 405.932, 79.500 405.932, 130.149 405.966 C 180.798 406, 180.798 406, 201.369 384.250 C 221.941 362.500, 221.941 362.500, 221.970 320.929 C 222 279.358, 222 279.358, 201.888 258.179 C 181.776 237, 181.776 237, 140.119 237 C 98.462 237, 98.462 237, 88.731 227.232 C 79 217.464, 79 217.464, 79 189.499 C 79 161.534, 79 161.534, 89.232 151.267 C 99.464 141, 99.464 141, 130.650 141 C 161.836 141, 161.836 141, 173.416 153.250 C 184.996 165.500, 184.996 165.500, 184.998 183.250 C 185 201, 185 201, 201.500 201 C 218 201, 218 201, 218 175.552 C 218 150.103, 218 150.103, 197.250 128.073 C 176.500 106.043, 176.500 106.043, 130.337 106.021 C 84.175 106, 84.175 106, 63.115 128.250 M 258.238 145.250 C 258.500 184.500, 258.500 184.500, 273.500 184.500 C 288.500 184.500, 288.500 184.500, 288.768 161.250 C 289.037 138, 289.037 138, 318.518 138 C 348 138, 348 138, 348 256 C 348 374, 348 374, 328 374 C 308 374, 308 374, 308 390 C 308 406, 308 406, 366.525 406 C 425.051 406, 425.051 406, 424.775 390.250 C 424.500 374.500, 424.500 374.500, 404.750 374.229 C 385 373.958, 385 373.958, 385 255.979 C 385 138, 385 138, 414.500 138 C 444 138, 444 138, 444 161.500 C 444 185, 444 185, 459 185 C 474 185, 474 185, 474 145.500 C 474 106, 474 106, 365.988 106 C 257.977 106, 257.977 106, 258.238 145.250" stroke="none" fill="#f9b33d" fill-rule="evenodd"/><path d="M 38 1.379 C 25.380 4.869, 11.545 15.682, 5.761 26.575 C -0.374 38.127, -0.002 23.270, 0.024 255.960 C 0.040 393.104, 0.401 470.028, 1.043 472.808 C 3.920 485.286, 15.386 500.298, 26.575 506.239 C 38.127 512.374, 23.270 512.002, 255.960 511.976 C 393.104 511.960, 470.028 511.599, 472.808 510.957 C 489.160 507.186, 505.188 492.439, 509.604 477.102 C 510.492 474.021, 511.618 470.719, 512.109 469.764 C 513.276 467.490, 513.295 40.700, 512.128 41.421 C 511.648 41.718, 511.013 40.467, 510.717 38.642 C 508.980 27.941, 496.403 11.590, 485.425 5.761 C 473.868 -0.376, 488.805 -0.006, 255.540 0.067 C 88.868 0.120, 41.521 0.406, 38 1.379 M 0.491 256 C 0.491 373.975, 0.607 422.238, 0.750 363.250 C 0.892 304.263, 0.892 207.738, 0.750 148.750 C 0.607 89.763, 0.491 138.025, 0.491 256 M 63.115 128.250 C 42.055 150.500, 42.055 150.500, 42.074 189.500 C 42.094 228.500, 42.094 228.500, 62.297 249.723 C 82.500 270.945, 82.500 270.945, 124.018 270.973 C 165.536 271, 165.536 271, 175.768 281.267 C 186 291.534, 186 291.534, 186 320.882 C 186 350.231, 186 350.231, 175.750 360.992 C 165.500 371.753, 165.500 371.753, 130.500 371.856 C 95.500 371.960, 95.500 371.960, 83.250 359.063 C 71 346.166, 71 346.166, 71 329.083 C 71 312, 71 312, 54.500 312 C 38 312, 38 312, 38 336.963 C 38 361.927, 38 361.927, 58.750 383.929 C 79.500 405.932, 79.500 405.932, 130.149 405.966 C 180.798 406, 180.798 406, 201.369 384.250 C 221.941 362.500, 221.941 362.500, 221.970 320.929 C 222 279.358, 222 279.358, 201.888 258.179 C 181.776 237, 181.776 237, 140.119 237 C 98.462 237, 98.462 237, 88.731 227.232 C 79 217.464, 79 217.464, 79 189.499 C 79 161.534, 79 161.534, 89.232 151.267 C 99.464 141, 99.464 141, 130.650 141 C 161.836 141, 161.836 141, 173.416 153.250 C 184.996 165.500, 184.996 165.500, 184.998 183.250 C 185 201, 185 201, 201.500 201 C 218 201, 218 201, 218 175.552 C 218 150.103, 218 150.103, 197.250 128.073 C 176.500 106.043, 176.500 106.043, 130.337 106.021 C 84.175 106, 84.175 106, 63.115 128.250 M 258.238 145.250 C 258.500 184.500, 258.500 184.500, 273.500 184.500 C 288.500 184.500, 288.500 184.500, 288.768 161.250 C 289.037 138, 289.037 138, 318.518 138 C 348 138, 348 138, 348 256 C 348 374, 348 374, 328 374 C 308 374, 308 374, 308 390 C 308 406, 308 406, 366.525 406 C 425.051 406, 425.051 406, 424.775 390.250 C 424.500 374.500, 424.500 374.500, 404.750 374.229 C 385 373.958, 385 373.958, 385 255.979 C 385 138, 385 138, 414.500 138 C 444 138, 444 138, 444 161.500 C 444 185, 444 185, 459 185 C 474 185, 474 185, 474 145.500 C 474 106, 474 106, 365.988 106 C 257.977 106, 257.977 106, 258.238 145.250" stroke="none" fill="#2474ab" fill-rule="evenodd"/></svg>