<?xml version="1.0" encoding="UTF-8"?>
<!DOCTYPE svg PUBLIC "-//W3C//DTD SVG 1.1//EN" "http://www.w3.org/Graphics/SVG/1.1/DTD/svg11.dtd">
<svg xmlns="http://www.w3.org/2000/svg" version="1.1" width="1400px" height="1400px" style="shape-rendering:geometricPrecision; text-rendering:geometricPrecision; image-rendering:optimizeQuality; fill-rule:evenodd; clip-rule:evenodd" xmlns:xlink="http://www.w3.org/1999/xlink" fill="#FCBA23">
<g><path style="opacity:0.989" d="M 681.5,99.5 C 746.325,95.3598 798.159,119.026 837,170.5C 866.555,214.498 873.555,261.831 858,312.5C 845.414,348.343 830.08,383.01 812,416.5C 777.997,479.877 740.497,540.877 699.5,599.5C 649.139,527.499 604.306,451.832 565,372.5C 552.028,345.918 542.028,318.252 535,289.5C 527.361,229.079 546.194,178.579 591.5,138C 617.855,116.656 647.855,103.823 681.5,99.5 Z M 698.5,199.5 C 732.231,201.938 754.065,219.272 764,251.5C 769.042,285.917 756.209,311.084 725.5,327C 685.97,339.385 656.803,327.219 638,290.5C 626.738,250.863 639.571,222.03 676.5,204C 683.829,201.768 691.162,200.268 698.5,199.5 Z"/></g>
<g><path style="opacity:0.988" d="M 544.5,445.5 C 545.822,445.33 546.989,445.663 548,446.5C 562.955,474.918 578.788,502.752 595.5,530C 581.764,535.925 568.097,542.258 554.5,549C 541.096,556.403 530.263,566.57 522,579.5C 513.305,597.694 515.638,614.36 529,629.5C 541.51,642.179 556.01,652.012 572.5,659C 613.268,675.018 655.601,682.851 699.5,682.5C 736.689,682.545 773.022,677.045 808.5,666C 827.781,659.528 845.448,650.195 861.5,638C 890.755,609.249 889.088,582.249 856.5,557C 852.5,554.333 848.5,551.667 844.5,549C 830.903,542.258 817.236,535.925 803.5,530C 820.156,501.844 836.656,473.678 853,445.5C 952.211,496.188 1051.04,547.521 1149.5,599.5C 999.814,678.01 849.814,756.01 699.5,833.5C 549.186,756.01 399.186,678.01 249.5,599.5C 347.737,547.882 446.071,496.549 544.5,445.5 Z"/></g>
<g><path style="opacity:0.99" d="M 400.5,753.5 C 409.707,757.102 418.707,761.269 427.5,766C 518.046,813.106 608.713,859.94 699.5,906.5C 798.724,855.638 897.891,804.638 997,753.5C 1047.95,779.615 1098.78,805.948 1149.5,832.5C 1145.7,835.236 1141.7,837.736 1137.5,840C 991.62,915.773 845.62,991.273 699.5,1066.5C 549.625,988.979 399.791,911.312 250,833.5C 249.312,832.668 249.479,832.002 250.5,831.5C 300.561,805.471 350.561,779.471 400.5,753.5 Z"/></g>
<g><path style="opacity:0.989" d="M 400.5,986.5 C 404.362,987.428 408.029,988.928 411.5,991C 507.343,1041.09 603.343,1090.92 699.5,1140.5C 798.761,1089.29 897.927,1037.95 997,986.5C 1048.25,1012.54 1099.08,1039.21 1149.5,1066.5C 999.777,1144.69 849.777,1222.36 699.5,1299.5C 549.223,1222.36 399.223,1144.69 249.5,1066.5C 253.296,1063.76 257.296,1061.26 261.5,1059C 308.209,1035.31 354.543,1011.15 400.5,986.5 Z"/></g>
</svg>
