<?xml version="1.0" encoding="UTF-8"?>
<!DOCTYPE svg PUBLIC "-//W3C//DTD SVG 1.1//EN" "http://www.w3.org/Graphics/SVG/1.1/DTD/svg11.dtd">
<svg xmlns="http://www.w3.org/2000/svg" version="1.1" width="512px" height="512px" style="shape-rendering:geometricPrecision; text-rendering:geometricPrecision; image-rendering:optimizeQuality; fill-rule:evenodd; clip-rule:evenodd" xmlns:xlink="http://www.w3.org/1999/xlink" fill="#FCBA23">
<g><path style="opacity:0.99" d="M 196.5,39.5 C 235.835,39.3333 275.168,39.5 314.5,40C 316.667,40.8333 318.167,42.3333 319,44.5C 319.5,56.1619 319.667,67.8286 319.5,79.5C 314.167,79.5 308.833,79.5 303.5,79.5C 303.666,74.1563 303.499,68.8229 303,63.5C 302.5,59 300,56.5 295.5,56C 282.167,55.8333 268.833,55.6667 255.5,55.5C 241.101,55.3582 226.768,55.8582 212.5,57C 209.906,58.339 208.406,60.5056 208,63.5C 207.501,68.8229 207.334,74.1563 207.5,79.5C 202.167,79.5 196.833,79.5 191.5,79.5C 191.333,67.8286 191.5,56.1619 192,44.5C 193.025,42.313 194.525,40.6464 196.5,39.5 Z"/></g>
<g><path style="opacity:1" d="M 223.5,71.5 C 244.833,71.5 266.167,71.5 287.5,71.5C 287.5,74.1667 287.5,76.8333 287.5,79.5C 266.167,79.5 244.833,79.5 223.5,79.5C 223.5,76.8333 223.5,74.1667 223.5,71.5 Z"/></g>
<g><path style="opacity:0.963" d="M 215.5,95.5 C 220.833,95.5 226.167,95.5 231.5,95.5C 231.333,107.171 231.5,118.838 232,130.5C 247.161,141.081 262.494,151.414 278,161.5C 279.441,170.058 279.941,178.724 279.5,187.5C 274.167,187.5 268.833,187.5 263.5,187.5C 263.666,182.489 263.499,177.489 263,172.5C 247.839,161.919 232.506,151.586 217,141.5C 215.532,126.263 215.032,110.93 215.5,95.5 Z"/></g>
<g><path style="opacity:0.933" d="M 254.5,95.5 C 260.167,95.5 265.833,95.5 271.5,95.5C 271.065,102.383 268.898,108.716 265,114.5C 264.506,116.134 264.34,117.801 264.5,119.5C 258.833,119.5 253.167,119.5 247.5,119.5C 247.335,116.482 247.502,113.482 248,110.5C 250.202,105.437 252.369,100.437 254.5,95.5 Z"/></g>
<g><path style="opacity:0.935" d="M 286.5,95.5 C 292.167,95.5 297.833,95.5 303.5,95.5C 303.228,102.482 301.061,108.816 297,114.5C 296.506,116.134 296.34,117.801 296.5,119.5C 290.833,119.5 285.167,119.5 279.5,119.5C 279.344,115.418 279.844,111.418 281,107.5C 283.656,103.856 285.489,99.8562 286.5,95.5 Z"/></g>
<g><path style="opacity:0.964" d="M 31.5,111.5 C 58.1667,111.5 84.8333,111.5 111.5,111.5C 111.5,138.167 111.5,164.833 111.5,191.5C 84.8333,191.5 58.1667,191.5 31.5,191.5C 31.5,164.833 31.5,138.167 31.5,111.5 Z M 70.5,119.5 C 93.7326,122.231 104.233,135.231 102,158.5C 95.9264,177.13 83.0931,184.964 63.5,182C 45.5915,175.36 38.0915,162.527 41,143.5C 45.8243,129.191 55.6576,121.191 70.5,119.5 Z"/></g>
<g><path style="opacity:0.937" d="M 65.5,135.5 C 84.7785,134.61 91.2785,143.276 85,161.5C 78.0554,168.069 70.2221,169.236 61.5,165C 54.9307,158.055 53.7641,150.222 58,141.5C 60.1141,138.879 62.6141,136.879 65.5,135.5 Z"/></g>
<g><path style="opacity:0.989" d="M 387.5,135.5 C 416.835,135.333 446.169,135.5 475.5,136C 478.383,137.589 479.883,140.089 480,143.5C 480.5,154.161 480.667,164.828 480.5,175.5C 448.167,175.5 415.833,175.5 383.5,175.5C 383.333,163.495 383.5,151.495 384,139.5C 384.69,137.65 385.856,136.316 387.5,135.5 Z"/></g>
<g><path style="opacity:0.968" d="M 127.5,151.5 C 150.169,151.333 172.836,151.5 195.5,152C 215.351,168.095 235.018,184.428 254.5,201C 257.473,201.383 260.306,200.883 263,199.5C 263.667,210.833 263.667,222.167 263,233.5C 248.498,241.675 244.831,253.342 252,268.5C 261.047,279.164 271.88,281.331 284.5,275C 294.934,266.329 297.267,255.829 291.5,243.5C 288.431,239.263 284.598,235.929 280,233.5C 279.333,221.833 279.333,210.167 280,198.5C 288.854,201.009 296.354,205.676 302.5,212.5C 311.367,192.601 320.367,172.767 329.5,153C 342.067,151.539 354.734,151.039 367.5,151.5C 367.5,156.833 367.5,162.167 367.5,167.5C 358.582,167.183 349.749,167.516 341,168.5C 330.747,191.171 320.913,214.004 311.5,237C 311.911,239.903 312.911,242.569 314.5,245C 328.903,245.685 341.07,251.185 351,261.5C 359.91,274.415 361.91,288.415 357,303.5C 347.591,322.124 332.425,330.124 311.5,327.5C 312.121,318.87 310.288,310.87 306,303.5C 301.578,298.707 296.078,296.207 289.5,296C 266.833,295.333 244.167,295.333 221.5,296C 212.623,296.558 206.123,300.725 202,308.5C 200.114,314.689 199.281,321.023 199.5,327.5C 183.325,329.734 169.992,324.734 159.5,312.5C 147.848,311.334 136.181,311.167 124.5,312C 119.667,318.833 114.833,325.667 110,332.5C 105.195,329.521 100.695,326.187 96.5,322.5C 102.043,313.914 107.709,305.414 113.5,297C 126.067,295.539 138.734,295.039 151.5,295.5C 149.64,268.385 161.973,251.885 188.5,246C 189.333,245.167 190.167,244.333 191,243.5C 194.272,230.719 202.439,224.053 215.5,223.5C 220.865,224.132 226.198,224.632 231.5,225C 235.049,221.276 238.049,217.109 240.5,212.5C 223.339,197.509 206.006,182.675 188.5,168C 168.169,167.5 147.836,167.333 127.5,167.5C 127.5,162.167 127.5,156.833 127.5,151.5 Z M 183.5,263.5 C 188.833,263.5 194.167,263.5 199.5,263.5C 199.5,268.833 199.5,274.167 199.5,279.5C 194.167,279.5 188.833,279.5 183.5,279.5C 183.5,274.167 183.5,268.833 183.5,263.5 Z M 215.5,263.5 C 220.833,263.5 226.167,263.5 231.5,263.5C 231.5,268.833 231.5,274.167 231.5,279.5C 226.167,279.5 220.833,279.5 215.5,279.5C 215.5,274.167 215.5,268.833 215.5,263.5 Z M 311.5,263.5 C 316.833,263.5 322.167,263.5 327.5,263.5C 327.5,268.833 327.5,274.167 327.5,279.5C 322.167,279.5 316.833,279.5 311.5,279.5C 311.5,274.167 311.5,268.833 311.5,263.5 Z"/></g>
<g><path style="opacity:0.986" d="M 383.5,187.5 C 415.833,187.5 448.167,187.5 480.5,187.5C 480.815,191.741 479.815,195.574 477.5,199C 446.833,199.667 416.167,199.667 385.5,199C 385,198.5 384.5,198 384,197.5C 383.502,194.183 383.335,190.85 383.5,187.5 Z"/></g>
<g><path style="opacity:1" d="M 31.5,207.5 C 58.1667,207.5 84.8333,207.5 111.5,207.5C 111.5,212.833 111.5,218.167 111.5,223.5C 84.8333,223.5 58.1667,223.5 31.5,223.5C 31.5,218.167 31.5,212.833 31.5,207.5 Z"/></g>
<g><path style="opacity:0.952" d="M 420.5,210.5 C 427.833,210.5 435.167,210.5 442.5,210.5C 443.425,214.79 444.091,219.124 444.5,223.5C 435.833,223.5 427.167,223.5 418.5,223.5C 418.909,219.124 419.575,214.79 420.5,210.5 Z"/></g>
<g><path style="opacity:0.892" d="M 267.5,247.5 C 278.86,246.71 282.193,251.543 277.5,262C 266.964,265.997 262.464,262.497 264,251.5C 264.69,249.65 265.856,248.316 267.5,247.5 Z"/></g>
<g><path style="opacity:0.91" d="M 409.5,295.5 C 426.866,292.957 441.866,297.624 454.5,309.5C 450.833,313.833 446.833,317.833 442.5,321.5C 427.386,308.41 412.219,308.41 397,321.5C 392.984,317.652 389.151,313.652 385.5,309.5C 392.323,302.757 400.323,298.091 409.5,295.5 Z"/></g>
<g><path style="opacity:0.992" d="M 217.5,311.5 C 242.836,311.333 268.169,311.5 293.5,312C 294,312.5 294.5,313 295,313.5C 295.499,318.155 295.666,322.821 295.5,327.5C 268.833,327.5 242.167,327.5 215.5,327.5C 215.334,322.821 215.501,318.155 216,313.5C 216.717,312.956 217.217,312.289 217.5,311.5 Z"/></g>
<g><path style="opacity:0.885" d="M 412.5,319.5 C 422.114,317.758 430.447,320.091 437.5,326.5C 434.016,330.485 430.349,334.318 426.5,338C 424.569,337.185 422.402,336.685 420,336.5C 417.739,336.439 415.739,337.106 414,338.5C 409.984,334.652 406.151,330.652 402.5,326.5C 405.32,323.333 408.653,320.999 412.5,319.5 Z"/></g>
<g><path style="opacity:0.902" d="M 77.5,336.5 C 79.6547,336.372 81.6547,336.872 83.5,338C 90.8333,342.333 98.1667,346.667 105.5,351C 88.1667,351.667 70.8333,351.667 53.5,351C 61.7297,346.392 69.7297,341.559 77.5,336.5 Z"/></g>
<g><path style="opacity:0.974" d="M 215.5,343.5 C 242.167,343.5 268.833,343.5 295.5,343.5C 295.5,375.5 295.5,407.5 295.5,439.5C 268.833,439.5 242.167,439.5 215.5,439.5C 215.5,407.5 215.5,375.5 215.5,343.5 Z M 246.5,360.5 C 262.751,358.307 276.751,362.807 288.5,374C 285.318,377.349 281.985,380.516 278.5,383.5C 263.167,372.833 247.833,372.833 232.5,383.5C 229.015,380.516 225.682,377.349 222.5,374C 229.245,367.131 237.245,362.631 246.5,360.5 Z M 248.5,384.5 C 257.366,382.828 265.033,384.994 271.5,391C 268.5,394 265.5,397 262.5,400C 258.339,399.299 254.173,399.466 250,400.5C 246.213,397.716 242.713,394.549 239.5,391C 242.214,388.322 245.214,386.155 248.5,384.5 Z M 253.5,407.5 C 262.07,408.316 264.737,412.649 261.5,420.5C 254.687,425.1 250.02,423.433 247.5,415.5C 248.075,411.651 250.075,408.984 253.5,407.5 Z"/></g>
<g><path style="opacity:0.974" d="M 385.5,353.5 C 405.169,353.333 424.836,353.5 444.5,354C 448.312,359.476 452.478,364.642 457,369.5C 463.183,370.921 469.349,372.421 475.5,374C 476.931,374.465 478.097,375.299 479,376.5C 479.499,382.157 479.666,387.824 479.5,393.5C 475.774,393.177 472.107,393.511 468.5,394.5C 464.661,406.133 457.327,408.966 446.5,403C 444.348,400.576 443.015,397.743 442.5,394.5C 432.5,393.167 422.5,393.167 412.5,394.5C 409.882,404.603 403.549,408.103 393.5,405C 389.79,402.45 387.457,398.95 386.5,394.5C 382.752,392.542 379.252,390.209 376,387.5C 375.333,381.167 375.333,374.833 376,368.5C 379.177,363.472 382.344,358.472 385.5,353.5 Z"/></g>
<g><path style="opacity:0.993" d="M 39.5,367.5 C 66.1667,367.5 92.8333,367.5 119.5,367.5C 119.5,386.167 119.5,404.833 119.5,423.5C 114.167,423.5 108.833,423.5 103.5,423.5C 103.667,412.828 103.5,402.161 103,391.5C 102.5,387 100,384.5 95.5,384C 84.8333,383.333 74.1667,383.333 63.5,384C 59,384.5 56.5,387 56,391.5C 55.5002,402.161 55.3335,412.828 55.5,423.5C 50.1667,423.5 44.8333,423.5 39.5,423.5C 39.5,404.833 39.5,386.167 39.5,367.5 Z"/></g>
<g><path style="opacity:1" d="M 71.5,399.5 C 76.8333,399.5 82.1667,399.5 87.5,399.5C 87.5,407.5 87.5,415.5 87.5,423.5C 82.1667,423.5 76.8333,423.5 71.5,423.5C 71.5,415.5 71.5,407.5 71.5,399.5 Z"/></g>
<g><path style="opacity:0.992" d="M 215.5,455.5 C 242.167,455.5 268.833,455.5 295.5,455.5C 295.666,460.179 295.499,464.845 295,469.5C 294.5,470 294,470.5 293.5,471C 268.167,471.667 242.833,471.667 217.5,471C 217,470.5 216.5,470 216,469.5C 215.501,464.845 215.334,460.179 215.5,455.5 Z"/></g>
</svg>
