<?xml version="1.0" encoding="utf-8"?>
<!-- Generator: Adobe Illustrator 25.4.1, SVG Export Plug-In . SVG Version: 6.00 Build 0)  -->
<svg version="1.0" id="katman_1" xmlns="http://www.w3.org/2000/svg" xmlns:xlink="http://www.w3.org/1999/xlink" x="0px" y="0px"
	 viewBox="0 0 1700 1200" style="enable-background:new 0 0 1700 1200;" xml:space="preserve">
<style type="text/css">
	.st0{fill-rule:evenodd;clip-rule:evenodd;fill:#05DEBA;}
</style>
<path class="st0" d="M426.6,528.1c8.9,0,16.1,7.3,16.1,16.4c0.1,8.9-7.1,16.2-16,16.3c0,0,0,0-0.1,0h-91.5v96.6
	c0.1,8.9-7.1,16.2-16,16.3c0,0,0,0,0,0c-8.8,0-16-7.3-16-16.3v-96.6h-91.6c-8.8,0-16-7.3-16-16.3c-0.1-8.9,7.1-16.2,16-16.3
	c0,0,0,0,0,0L426.6,528.1L426.6,528.1z M1487.3,528.3c8.9-0.8,16.7,5.7,17.6,14.6c0,0.5,0.1,1,0.1,1.5v98c0,9.4-4,18.6-11.3,24.2
	c-9,7.1-21.3,8.1-31.3,2.5l-171.9-100.4c-3.1-1.7-7-0.7-8.7,2.4c-0.6,1-0.9,2.2-0.8,3.3v82.8c0,8.9-7.2,16.2-16.1,16.2
	c-0.5,0-1,0-1.5-0.1c-8.4-0.7-14.5-8.4-14.5-16.9v-98c0-9.4,4-18.6,11.3-24.2c8.7-6.9,20.7-8,30.6-2.9l0.7,0.4l171.9,100.3
	c3,1.8,6.9,0.9,8.8-2.2c0.6-1.1,1-2.3,0.9-3.5v-81.2C1473,536.8,1479,529.1,1487.3,528.3L1487.3,528.3z M846.6,530.7
	c6.6-5.9,16.7-5.3,22.6,1.5c5.9,6.8,5.2,17.1-1.5,23.1c-21.1,19.2-45.5,34.4-72,44.9c26.5,10.5,50.9,25.7,72,44.9
	c6.7,6,7.3,16.3,1.5,23.1c-5.7,6.6-15.7,7.4-22.4,1.7c-0.1-0.1-0.2-0.1-0.2-0.2c-61.8-55.5-125.7-52.4-139.5-51v38.2
	c0.1,8.9-7,16.3-15.9,16.4c0,0-0.1,0-0.1,0c-8.8,0-16-7.3-16-16.3V544.5c-0.1-8.9,7.1-16.2,16-16.3c0,0,0,0,0,0
	c8.8,0,16,7.3,16,16.3v37.2c6.1,0.6,21.8,1.5,42.6-2.2C785,573,817.7,556.7,846.6,530.7z M632.4,528.2c8.8,0,16,7.3,16,16.3
	c0.1,8.5-6.5,15.7-15,16.3H529c-21.8,0.2-39.3,18-39.1,39.8c-0.2,21.3,16.5,38.9,37.7,39.8h104.8c8.8,0,16,7.3,16,16.4
	c0.1,8.5-6.5,15.6-15,16.2H529c-39.7-0.3-71.6-32.7-71.2-72.4c0,0,0,0,0,0c0-39.4,31-71.5,69.5-72.4
	C527.3,528.2,632.4,528.2,632.4,528.2z M918.5,528.1c8.8,0,16,7.3,16,16.3v112.3c0.1,8.9-7.1,16.2-16,16.3c0,0,0,0,0,0
	c-8.8,0-16-7.3-16-16.3V544.5C902.5,535.5,909.6,528.2,918.5,528.1C918.5,528.2,918.5,528.2,918.5,528.1L918.5,528.1z M1154.9,528.1
	c37.4,0.3,67.6,30.9,67.3,68.4v8.1c0,37.7-30.1,68.4-67.3,68.4h-123.4c-37.4-0.4-67.4-31-67.1-68.4v-8.1c0-37.7,30.1-68.4,67.2-68.4
	H1154.9L1154.9,528.1z M1154.9,560.7h-123.4c-19.6,0.2-35.3,16.2-35.1,35.8v8.1c-0.2,19.6,15.5,35.6,35.1,35.8c0,0,0.1,0,0.1,0H1155
	c19.6-0.2,35.3-16.2,35.1-35.8v-8.1C1190.3,577,1174.5,560.9,1154.9,560.7C1155,560.7,1155,560.7,1154.9,560.7L1154.9,560.7z
	 M618.9,584.3c8.8,0,16,7.3,16,16.3c0.1,8.6-6.5,15.7-15.1,16.3h-90.7c-8.9,0-16.1-7.3-16.1-16.3c0-8.7,6.6-15.7,15.1-16.2
	L618.9,584.3L618.9,584.3z"/>
</svg>
