<?xml version="1.0" encoding="utf-8"?>
<!-- Generator: Adobe Illustrator 26.0.3, SVG Export Plug-In . SVG Version: 6.00 Build 0)  -->
<svg version="1.0" id="katman_1" xmlns="http://www.w3.org/2000/svg" xmlns:xlink="http://www.w3.org/1999/xlink" x="0px" y="0px"
	 viewBox="0 0 800 600" style="enable-background:new 0 0 800 600;" xml:space="preserve">
<style type="text/css">
	.st0{fill:#4C4C4C;}
</style>
<path class="st0" d="M294.4,341.1c17.1-1.2,34,4.9,46.4,16.7c11.8,12.4,17.9,29.2,16.7,46.4c0.1,13,0.1,26.6,0,39.4
	c-0.1,14.9-2.2,31.8-16.7,46.4c-12.4,11.8-29.2,17.9-46.4,16.7h-39.5c-15,0-31.9-2.1-46.4-16.6c-11.9-12.4-17.9-29.2-16.8-46.4l0,0
	v-39.5c0.1-14.9,2.2-31.8,16.8-46.4c12.4-11.8,29.2-17.9,46.4-16.7C254.9,341.1,294.4,341.1,294.4,341.1z M460.4,340.9
	c1.6,0.1,3.1,0.7,4.2,1.9c19.5,21.9,39,43.7,58.4,65.5c0.3,0.3,0.7,0.3,1,0l58.4-65.5c1.1-1.2,2.6-1.8,4.2-1.9h18.9
	c1.3-0.1,2.4,0.8,2.5,2.1c0.1,0.7-0.2,1.4-0.7,1.9l-70.1,78.7c-0.2,0.3-0.2,0.6,0,0.9l69.8,78.3c0.9,0.9,1,2.3,0.1,3.2
	c-0.5,0.5-1.1,0.8-1.8,0.7h-18.9c-1.6-0.1-3.1-0.7-4.2-1.9c-19.4-21.7-38.8-43.4-58.2-65.3c-0.3-0.3-0.7-0.3-1,0
	c-19.3,21.8-38.6,43.6-58.1,65.3c-1.1,1.2-2.6,1.8-4.2,1.9h-18.9c-1.3,0.1-2.4-0.8-2.5-2.1c-0.1-0.7,0.2-1.4,0.7-1.9l69.8-78.3
	c0.2-0.3,0.2-0.6,0-0.9c-23.3-26.2-46.7-52.5-70.1-78.7c-0.9-0.9-1-2.3-0.1-3.2c0.5-0.5,1.2-0.8,1.9-0.7L460.4,340.9z M296.5,361.8
	h-43.8c-10.9-0.7-21.6,3.2-29.6,10.7c-7.6,7.9-11.5,18.6-10.7,29.6l0,0v43.8c-0.7,10.9,3.2,21.6,10.7,29.6
	c7.9,7.6,18.6,11.5,29.6,10.7h43.8c10.9,0.7,21.6-3.2,29.6-10.7c7.6-7.9,11.5-18.6,10.7-29.6l0,0c0.2-14.4,0.2-29.4,0-43.8
	c0.7-10.9-3.2-21.6-10.7-29.6C318.2,364.9,307.4,361,296.5,361.8z M347,92.5c5.7-0.8,10.9,3.1,11.7,8.7c0.1,0.9,0.1,1.9,0,2.9l0,0
	v14.4c-0.1,3.3-1.6,6.4-4.2,8.6l0,0L214.1,236.1c-0.2,0.2-0.4,0.5-0.4,0.8l0,0v0.2c0,0.3,0.2,0.5,0.5,0.5h141.7
	c1.6,0,2.9,1.3,2.9,2.9l0,0v14.8c-0.1,1.6-1.3,2.8-2.9,2.9H204.6c-5.8,0.6-11-3.5-11.6-9.3c-0.1-0.7-0.1-1.5,0-2.2l0,0v-14
	c0.1-3.3,1.6-6.4,4.2-8.6l0,0l140.5-109.2c0.2-0.2,0.4-0.5,0.4-0.8l0,0v-0.3c0-0.3-0.2-0.5-0.5-0.5H195.9c-1.6,0-2.9-1.3-2.9-2.9
	l0,0V95.4c0.1-1.6,1.3-2.8,2.9-2.9H347z M544.6,92.5c17.1-1.2,33.9,4.9,46.3,16.7c11.9,12.4,18,29.2,16.8,46.4
	c0.1,13,0.1,26.6,0,39.4c-0.1,14.9-2.2,31.8-16.8,46.4c-12.4,11.8-29.2,17.9-46.3,16.7h-39.5c-15,0-31.8-2.1-46.4-16.6
	c-11.9-12.4-18-29.2-16.8-46.4l0,0v-39.5c0.1-14.9,2.2-31.8,16.8-46.4c12.4-11.8,29.2-17.9,46.4-16.7H544.6L544.6,92.5z
	 M546.7,113.2h-43.8c-10.9-0.8-21.7,3-29.6,10.5c-7.5,7.9-11.4,18.6-10.7,29.6l0,0v43.8c-0.7,10.9,3.1,21.6,10.7,29.6
	c7.9,7.6,18.7,11.5,29.6,10.7h43.8c10.9,0.8,21.7-3,29.6-10.6c7.6-7.9,11.4-18.6,10.7-29.6c0.2-14.4,0.2-29.4,0-43.8
	c0.7-10.9-3.1-21.6-10.7-29.6C568.4,116.3,557.7,112.4,546.7,113.2L546.7,113.2z"/>
</svg>
