<?xml version="1.0" encoding="UTF-8"?>
<!DOCTYPE svg PUBLIC "-//W3C//DTD SVG 1.1//EN" "http://www.w3.org/Graphics/SVG/1.1/DTD/svg11.dtd">
<svg xmlns="http://www.w3.org/2000/svg" version="1.1" width="280px" height="280px" style="shape-rendering:geometricPrecision; text-rendering:geometricPrecision; image-rendering:optimizeQuality; fill-rule:evenodd; clip-rule:evenodd" xmlns:xlink="http://www.w3.org/1999/xlink" fill="#FCBA23">
<g><path style="opacity:0.999" d="M 199.5,236.5 C 198.833,236.5 198.5,236.167 198.5,235.5C 223.437,205.946 226.937,173.946 209,139.5C 193.412,114.866 171.078,100.866 142,97.5C 111.921,101.246 97.9213,118.246 100,148.5C 101.537,152.939 103.37,157.273 105.5,161.5C 105.5,162.833 104.833,163.5 103.5,163.5C 71.4877,142.787 59.9877,113.787 69,76.5C 78.8396,47.3294 99.0063,30.4961 129.5,26C 181.941,23.7977 220.108,45.9644 244,92.5C 263.501,143.677 253.668,188.177 214.5,226C 209.792,230.012 204.792,233.512 199.5,236.5 Z"/></g>
<g><path style="opacity:0.545" d="M 79.5,44.5 C 79.1583,43.6618 78.4916,43.3284 77.5,43.5C 78.8484,42.3994 80.3484,41.3994 82,40.5C 82.2793,42.4122 81.4459,43.7456 79.5,44.5 Z"/></g>
<g><path style="opacity:0.999" d="M 77.5,43.5 C 78.4916,43.3284 79.1583,43.6618 79.5,44.5C 50.1741,83.3165 51.6741,120.983 84,157.5C 98.7126,171.856 116.379,179.856 137,181.5C 167.079,177.754 181.079,160.754 179,130.5C 177.463,126.061 175.63,121.727 173.5,117.5C 173.5,116.167 174.167,115.5 175.5,115.5C 207.512,136.213 219.012,165.213 210,202.5C 200.16,231.671 179.994,248.504 149.5,253C 97.0591,255.202 58.8924,233.036 35,186.5C 15.4988,135.323 25.3322,90.8227 64.5,53C 68.5081,49.3351 72.8414,46.1684 77.5,43.5 Z"/></g>
<g><path style="opacity:0.655" d="M 175.5,115.5 C 174.167,115.5 173.5,116.167 173.5,117.5C 172.521,116.235 171.521,114.901 170.5,113.5C 172.578,112.693 174.245,113.359 175.5,115.5 Z"/></g>
<g><path style="opacity:0.655" d="M 105.5,161.5 C 106.479,162.765 107.479,164.099 108.5,165.5C 106.422,166.307 104.755,165.641 103.5,163.5C 104.833,163.5 105.5,162.833 105.5,161.5 Z"/></g>
<g><path style="opacity:0.145" d="M 198.5,235.5 C 198.5,236.167 198.833,236.5 199.5,236.5C 198.828,237.267 197.995,237.934 197,238.5C 196.415,237.002 196.915,236.002 198.5,235.5 Z"/></g>
</svg>
