<?xml version="1.0" encoding="UTF-8"?>
<!DOCTYPE svg PUBLIC "-//W3C//DTD SVG 1.1//EN" "http://www.w3.org/Graphics/SVG/1.1/DTD/svg11.dtd">
<svg xmlns="http://www.w3.org/2000/svg" version="1.1" width="500px" height="500px" style="shape-rendering:geometricPrecision; text-rendering:geometricPrecision; image-rendering:optimizeQuality; fill-rule:evenodd; clip-rule:evenodd" xmlns:xlink="http://www.w3.org/1999/xlink" fill="#FCBA23">
<g><path style="opacity:0.956" d="M 227.5,-0.5 C 242.167,-0.5 256.833,-0.5 271.5,-0.5C 357.936,9.82506 423.436,52.1584 468,126.5C 485.482,158.122 495.982,191.789 499.5,227.5C 499.5,242.167 499.5,256.833 499.5,271.5C 489.175,357.936 446.842,423.436 372.5,468C 340.878,485.482 307.211,495.982 271.5,499.5C 256.833,499.5 242.167,499.5 227.5,499.5C 141.064,489.175 75.5637,446.842 31,372.5C 13.7218,341.172 3.22179,307.838 -0.5,272.5C -0.5,257.167 -0.5,241.833 -0.5,226.5C 12.0927,130.78 61.7593,61.9467 148.5,20C 173.939,9.22457 200.273,2.39124 227.5,-0.5 Z M 240.5,28.5 C 263.575,28.1563 286.242,30.9897 308.5,37C 300.106,37.1293 291.772,37.796 283.5,39C 272.783,44.7709 268.45,53.7709 270.5,66C 269.339,75.3864 272.006,83.3864 278.5,90C 281.893,92.0757 285.56,93.2424 289.5,93.5C 289.334,101.507 289.5,109.507 290,117.5C 291.979,128.145 298.146,134.978 308.5,138C 323.5,138.333 338.5,138.667 353.5,139C 356.831,139.794 358.664,141.961 359,145.5C 359.333,175.167 359.667,204.833 360,234.5C 362.408,241.909 367.242,247.076 374.5,250C 383.766,251.386 393.1,251.886 402.5,251.5C 402.5,264.167 402.5,276.833 402.5,289.5C 393.33,290.167 387.163,294.834 384,303.5C 377.316,339.591 391.816,353.091 427.5,344C 434.125,340.921 437.958,335.755 439,328.5C 439.667,321.167 439.667,313.833 439,306.5C 436.629,297.296 430.795,291.629 421.5,289.5C 420.501,276.851 420.168,264.184 420.5,251.5C 437.167,251.5 453.833,251.5 470.5,251.5C 466.591,332.856 430.591,395.356 362.5,439C 348.245,447.461 333.245,454.294 317.5,459.5C 316.513,456.232 316.18,452.898 316.5,449.5C 324.471,448.599 330.305,444.599 334,437.5C 343.052,402.558 329.885,388.058 294.5,394C 287,396.167 282.167,401 280,408.5C 279.08,418.242 279.413,427.908 281,437.5C 284.695,444.599 290.529,448.599 298.5,449.5C 299.081,454.975 298.414,460.142 296.5,465C 213.477,480.213 142.977,457.38 85,396.5C 36.2555,338.859 19.4222,272.859 34.5,198.5C 59.1667,198.5 83.8333,198.5 108.5,198.5C 108.333,215.503 108.5,232.503 109,249.5C 110.591,259.531 116.091,266.364 125.5,270C 133.142,270.981 140.809,271.814 148.5,272.5C 149.986,279.65 153.986,284.816 160.5,288C 195.442,297.052 209.942,283.885 204,248.5C 201.723,240.556 196.556,235.722 188.5,234C 180.833,233.333 173.167,233.333 165.5,234C 155.091,236.293 149.425,242.793 148.5,253.5C 143.156,253.666 137.823,253.499 132.5,253C 129.227,252.06 127.394,249.893 127,246.5C 126.333,208.5 126.333,170.5 127,132.5C 127.346,130.152 128.513,128.319 130.5,127C 138.827,126.5 147.16,126.334 155.5,126.5C 156.236,138.403 162.569,144.903 174.5,146C 204.868,149.959 217.035,136.792 211,106.5C 209.345,98.8454 204.845,93.6787 197.5,91C 187.833,90.3333 178.167,90.3333 168.5,91C 160.92,94.4141 156.587,100.247 155.5,108.5C 145.828,108.334 136.161,108.5 126.5,109C 116.704,112.462 110.871,119.295 109,129.5C 108.5,146.497 108.333,163.497 108.5,180.5C 85.8333,180.5 63.1667,180.5 40.5,180.5C 67.6115,104.892 119.945,56.392 197.5,35C 211.847,31.9278 226.18,29.7612 240.5,28.5 Z M 318.5,40.5 C 383.225,63.0556 428.725,106.056 455,169.5C 462.988,190.119 467.821,211.452 469.5,233.5C 439.412,233.984 409.412,233.484 379.5,232C 378.874,231.25 378.374,230.416 378,229.5C 377.667,200.833 377.333,172.167 377,143.5C 375.725,130.893 368.891,123.393 356.5,121C 341.5,120.667 326.5,120.333 311.5,120C 309.513,118.681 308.346,116.848 308,114.5C 307.5,107.508 307.334,100.508 307.5,93.5C 316.362,92.9868 322.529,88.6535 326,80.5C 326.667,70.8333 326.667,61.1667 326,51.5C 324.451,47.1296 321.951,43.4629 318.5,40.5 Z M 290.5,55.5 C 296.425,55.1918 302.259,55.5251 308,56.5C 308.5,62.8246 308.666,69.1579 308.5,75.5C 302.132,75.8297 295.798,75.4963 289.5,74.5C 288.379,68.8862 288.212,63.2195 289,57.5C 289.717,56.9558 290.217,56.2891 290.5,55.5 Z M 173.5,108.5 C 179.842,108.334 186.175,108.5 192.5,109C 193.641,114.75 193.807,120.584 193,126.5C 189.902,128.047 186.569,128.714 183,128.5C 180.111,128.453 177.278,128.12 174.5,127.5C 173.504,121.202 173.17,114.868 173.5,108.5 Z M 240.5,172.5 C 246.758,172.19 252.924,172.524 259,173.5C 259.809,179.749 259.642,185.916 258.5,192C 252.584,192.807 246.75,192.641 241,191.5C 240.5,185.175 240.334,178.842 240.5,172.5 Z M 168.5,251.5 C 174.425,251.192 180.259,251.525 186,252.5C 186.809,258.749 186.642,264.916 185.5,271C 179.251,271.809 173.084,271.642 167,270.5C 166.333,264.833 166.333,259.167 167,253.5C 167.717,252.956 168.217,252.289 168.5,251.5 Z M 402.5,307.5 C 408.176,307.334 413.843,307.501 419.5,308C 420,308.5 420.5,309 421,309.5C 421.788,315.22 421.621,320.886 420.5,326.5C 414.278,327.809 408.111,327.809 402,326.5C 401.21,320.085 401.376,313.752 402.5,307.5 Z M 339.5,340.5 C 345.868,340.17 352.202,340.504 358.5,341.5C 359.621,347.114 359.788,352.78 359,358.5C 358.5,359 358,359.5 357.5,360C 351.833,360.667 346.167,360.667 340.5,360C 339.522,353.59 339.189,347.09 339.5,340.5 Z M 227.5,370.5 C 233.425,370.192 239.259,370.525 245,371.5C 245.809,377.749 245.642,383.916 244.5,390C 238.251,390.809 232.084,390.642 226,389.5C 225.333,383.833 225.333,378.167 226,372.5C 226.717,371.956 227.217,371.289 227.5,370.5 Z M 129.5,388.5 C 135.425,388.192 141.259,388.525 147,389.5C 147.5,395.825 147.666,402.158 147.5,408.5C 141.167,408.5 134.833,408.5 128.5,408.5C 128.207,401.745 128.54,395.078 129.5,388.5 Z M 298.5,411.5 C 304.758,411.19 310.924,411.524 317,412.5C 317.809,418.749 317.642,424.916 316.5,431C 310.251,431.809 304.084,431.642 298,430.5C 297.21,424.085 297.376,417.752 298.5,411.5 Z"/></g>
<g><path style="opacity:0.939" d="M 236.5,154.5 C 272.729,148.884 285.895,163.884 276,199.5C 272.162,206.336 266.329,210.003 258.5,210.5C 258.334,218.84 258.5,227.173 259,235.5C 261.607,243.775 267.107,248.941 275.5,251C 294.167,251.333 312.833,251.667 331.5,252C 346.667,255.833 356.167,265.333 360,280.5C 360.167,294.512 360.667,308.512 361.5,322.5C 374.004,327.485 379.337,336.818 377.5,350.5C 379.528,364.638 373.861,373.805 360.5,378C 326.911,383.068 314.078,368.901 322,335.5C 325.836,326.506 332.669,322.173 342.5,322.5C 342.667,309.496 342.5,296.496 342,283.5C 339.833,276.667 335.333,272.167 328.5,270C 317.839,269.5 307.172,269.333 296.5,269.5C 296.667,280.838 296.5,292.172 296,303.5C 292.825,316.009 284.991,323.842 272.5,327C 263.212,328.276 253.879,328.776 244.5,328.5C 244.5,336.5 244.5,344.5 244.5,352.5C 253.67,353.167 259.837,357.834 263,366.5C 270.063,400.437 256.563,414.27 222.5,408C 214.565,405.732 209.732,400.565 208,392.5C 207.119,383.438 207.452,374.438 209,365.5C 212.378,357.966 218.212,353.633 226.5,352.5C 226.5,344.5 226.5,336.5 226.5,328.5C 205.164,328.333 183.831,328.5 162.5,329C 153.981,332.196 149.481,338.363 149,347.5C 148.333,355.167 148.333,362.833 149,370.5C 162.633,374.735 168.466,384.068 166.5,398.5C 168.255,410.144 164.255,418.977 154.5,425C 116.464,433.963 102.297,419.463 112,381.5C 116.088,374.371 122.255,370.705 130.5,370.5C 129.964,358.387 130.797,346.387 133,334.5C 139.486,319.335 150.986,311.168 167.5,310C 201.5,309.667 235.5,309.333 269.5,309C 273.667,307.5 276.5,304.667 278,300.5C 278.5,290.172 278.666,279.839 278.5,269.5C 258.609,268.11 246.109,257.776 241,238.5C 240.5,229.173 240.334,219.839 240.5,210.5C 229.756,208.59 223.589,202.256 222,191.5C 221.225,183.452 221.558,175.452 223,167.5C 225.442,160.888 229.942,156.555 236.5,154.5 Z M 240.5,172.5 C 240.334,178.842 240.5,185.175 241,191.5C 246.75,192.641 252.584,192.807 258.5,192C 259.642,185.916 259.809,179.749 259,173.5C 252.924,172.524 246.758,172.19 240.5,172.5 Z M 339.5,340.5 C 339.189,347.09 339.522,353.59 340.5,360C 346.167,360.667 351.833,360.667 357.5,360C 358,359.5 358.5,359 359,358.5C 359.788,352.78 359.621,347.114 358.5,341.5C 352.202,340.504 345.868,340.17 339.5,340.5 Z M 227.5,370.5 C 227.217,371.289 226.717,371.956 226,372.5C 225.333,378.167 225.333,383.833 226,389.5C 232.084,390.642 238.251,390.809 244.5,390C 245.642,383.916 245.809,377.749 245,371.5C 239.259,370.525 233.425,370.192 227.5,370.5 Z M 129.5,388.5 C 128.54,395.078 128.207,401.745 128.5,408.5C 134.833,408.5 141.167,408.5 147.5,408.5C 147.666,402.158 147.5,395.825 147,389.5C 141.259,388.525 135.425,388.192 129.5,388.5 Z"/></g>
</svg>
