<?xml version="1.0" encoding="UTF-8"?>
<!DOCTYPE svg PUBLIC "-//W3C//DTD SVG 1.1//EN" "http://www.w3.org/Graphics/SVG/1.1/DTD/svg11.dtd">
<svg xmlns="http://www.w3.org/2000/svg" version="1.1" width="1110px" height="1124px" style="shape-rendering:geometricPrecision; text-rendering:geometricPrecision; image-rendering:optimizeQuality; fill-rule:evenodd; clip-rule:evenodd" xmlns:xlink="http://www.w3.org/1999/xlink" fill="#FCBA23">
<g><path style="opacity:0.992" d="M 545.5,26.5 C 557.167,26.5 568.833,26.5 580.5,26.5C 580.5,49.5 580.5,72.5 580.5,95.5C 568.833,95.5 557.167,95.5 545.5,95.5C 545.5,72.5 545.5,49.5 545.5,26.5 Z"/></g>
<g><path style="opacity:0.993" d="M 545.5,128.5 C 557.167,128.5 568.833,128.5 580.5,128.5C 580.5,207.5 580.5,286.5 580.5,365.5C 607.175,365.833 633.842,365.5 660.5,364.5C 670.907,352.262 680.74,339.596 690,326.5C 702.788,312.904 714.622,298.57 725.5,283.5C 706.657,247.049 713.323,216.216 745.5,191C 771.232,175.721 796.899,175.721 822.5,191C 849.438,212.823 857.605,240.323 847,273.5C 832.192,304.325 807.692,318.158 773.5,315C 766.343,313.836 759.509,311.67 753,308.5C 731.236,335.026 709.236,361.359 687,387.5C 683.113,391.387 679.279,395.221 675.5,399C 670.917,400.145 666.251,400.811 661.5,401C 634.493,401.669 607.493,401.502 580.5,400.5C 580.5,417.167 580.5,433.833 580.5,450.5C 591.833,450.5 603.167,450.5 614.5,450.5C 614.5,462.167 614.5,473.833 614.5,485.5C 603.167,485.5 591.833,485.5 580.5,485.5C 580.5,502.167 580.5,518.833 580.5,535.5C 603.167,535.5 625.833,535.5 648.5,535.5C 648.5,547.167 648.5,558.833 648.5,570.5C 625.833,570.5 603.167,570.5 580.5,570.5C 580.5,587.167 580.5,603.833 580.5,620.5C 591.833,620.5 603.167,620.5 614.5,620.5C 614.5,632.167 614.5,643.833 614.5,655.5C 603.167,655.5 591.833,655.5 580.5,655.5C 580.5,672.167 580.5,688.833 580.5,705.5C 591.833,705.5 603.167,705.5 614.5,705.5C 614.5,717.167 614.5,728.833 614.5,740.5C 603.167,740.5 591.833,740.5 580.5,740.5C 580.5,825.167 580.5,909.833 580.5,994.5C 568.833,994.5 557.167,994.5 545.5,994.5C 545.667,971.498 545.5,948.498 545,925.5C 493.574,976.315 433.741,989.815 365.5,966C 331.169,951.002 305.169,927.002 287.5,894C 273.545,890.785 259.545,887.785 245.5,885C 225.337,878.816 207.67,868.483 192.5,854C 147.185,810.056 129.352,756.556 139,693.5C 98.3335,624.496 93.0001,552.83 123,478.5C 133.343,455.3 147.509,434.8 165.5,417C 173.027,411.306 180.694,405.806 188.5,400.5C 188.012,336.974 213.345,286.807 264.5,250C 281.003,239.387 299.003,232.72 318.5,230C 330.485,199.749 350.818,176.749 379.5,161C 411.734,144.604 445.4,140.937 480.5,150C 505.23,157.607 526.73,170.441 545,188.5C 545.5,168.503 545.667,148.503 545.5,128.5 Z M 432.5,180.5 C 470.443,177.071 501.61,189.738 526,218.5C 538.504,237.16 544.837,257.826 545,280.5C 545.5,292.829 545.667,305.162 545.5,317.5C 508.136,318.749 481.303,302.749 465,269.5C 463.648,266.28 462.814,262.947 462.5,259.5C 450.241,260.642 438.908,264.475 428.5,271C 438.915,303.088 459.582,326.088 490.5,340C 508.005,347.793 526.338,351.959 545.5,352.5C 545.833,397.172 545.5,441.838 544.5,486.5C 517.498,469.256 488.498,465.089 457.5,474C 443.03,478.901 429.696,485.901 417.5,495C 402.199,508.633 387.199,522.633 372.5,537C 363.098,545.388 352.432,551.722 340.5,556C 326.352,559.169 313.019,557.169 300.5,550C 290.005,510.339 264.338,488.505 223.5,484.5C 223.5,496.167 223.5,507.833 223.5,519.5C 257.254,523.302 270.754,541.968 264,575.5C 261.089,586.745 254.256,594.578 243.5,599C 237.038,601.449 230.371,602.949 223.5,603.5C 223.5,615.167 223.5,626.833 223.5,638.5C 247.019,637.823 266.185,628.489 281,610.5C 286.537,603.261 291.704,595.761 296.5,588C 303.177,588.167 309.844,588.834 316.5,590C 331.726,592.034 346.392,590.034 360.5,584C 375.635,577.939 389.301,569.606 401.5,559C 413.192,546.309 425.192,533.976 437.5,522C 454.685,507.905 474.352,501.571 496.5,503C 514.974,506.986 529.474,516.819 540,532.5C 541.92,535.339 543.587,538.339 545,541.5C 546.102,586.328 546.935,631.161 547.5,676C 547.457,696.859 546.791,717.692 545.5,738.5C 494.363,739.505 456.863,762.505 433,807.5C 431.09,811.896 429.59,816.396 428.5,821C 438.592,824.697 448.759,828.197 459,831.5C 465.157,822.528 470.824,813.195 476,803.5C 493.538,780.822 516.705,770.822 545.5,773.5C 546.465,792.158 546.632,810.825 546,829.5C 543.79,884.363 516.624,920.196 464.5,937C 426.104,947.489 390.104,942.155 356.5,921C 316.539,890.455 302.372,850.622 314,801.5C 328.678,759.717 357.844,734.551 401.5,726C 415.75,723.86 430.083,723.027 444.5,723.5C 444.143,710.125 444.643,696.792 446,683.5C 453.485,658.512 469.985,643.512 495.5,638.5C 495.5,626.833 495.5,615.167 495.5,603.5C 474.787,605.192 457.12,613.358 442.5,628C 425.616,645.264 414.616,665.764 409.5,689.5C 371,694.165 338.834,710.832 313,739.5C 292.899,735.797 276.899,725.797 265,709.5C 261.318,702.954 259.151,695.954 258.5,688.5C 246.833,688.5 235.167,688.5 223.5,688.5C 224.551,712.104 234.218,731.27 252.5,746C 263.995,754.251 275.995,761.751 288.5,768.5C 288.833,769.333 289.167,770.167 289.5,771C 285.868,782.228 282.035,793.395 278,804.5C 273.888,821.399 273.388,838.399 276.5,855.5C 239.713,851.87 211.88,834.203 193,802.5C 179.877,779.455 173.043,754.621 172.5,728C 173.846,713.775 175.346,699.608 177,685.5C 151.989,650.46 139.823,611.293 140.5,568C 139.69,530.063 149.523,495.23 170,463.5C 178.586,451.579 189.086,441.746 201.5,434C 210.355,429.74 219.022,425.24 227.5,420.5C 218.781,376.917 227.948,337.584 255,302.5C 269.109,285.613 286.776,274.279 308,268.5C 307.14,289.103 310.14,309.103 317,328.5C 321.775,337.716 326.275,347.05 330.5,356.5C 330.392,357.442 330.059,358.275 329.5,359C 313.574,367.921 299.741,379.421 288,393.5C 279.408,405.776 274.908,419.442 274.5,434.5C 286.167,434.5 297.833,434.5 309.5,434.5C 310.424,418.816 317.424,406.649 330.5,398C 336.391,393.887 342.724,390.554 349.5,388C 353.167,387.333 356.833,387.333 360.5,388C 367.772,392.274 374.772,396.941 381.5,402C 401.06,412.946 422.06,418.113 444.5,417.5C 444.5,405.833 444.5,394.167 444.5,382.5C 391.844,380.601 358.678,354.268 345,303.5C 337.612,257.615 352.779,221.449 390.5,195C 403.757,187.638 417.757,182.805 432.5,180.5 Z M 783.5,213.5 C 804.919,215.254 816.253,226.921 817.5,248.5C 815.975,269.857 804.475,280.857 783,281.5C 766.369,280.204 755.702,271.538 751,255.5C 748.224,230.793 759.057,216.793 783.5,213.5 Z"/></g>
<g><path style="opacity:0.992" d="M 909.5,297.5 C 946.335,296.151 971.502,312.485 985,346.5C 992.858,383.618 980.025,411.118 946.5,429C 922.163,439.616 899.496,436.95 878.5,421C 868.952,413.045 861.452,403.545 856,392.5C 854.855,389.568 854.022,386.568 853.5,383.5C 845.14,383.169 836.807,383.502 828.5,384.5C 816.418,402.329 804.585,420.329 793,438.5C 782.835,450.333 773.835,463 766,476.5C 764.188,479.28 762.021,481.78 759.5,484C 744.93,485.467 730.264,485.967 715.5,485.5C 715.5,473.833 715.5,462.167 715.5,450.5C 724.418,450.817 733.251,450.484 742,449.5C 749.275,437.893 756.942,426.56 765,415.5C 767.333,410.833 769.667,406.167 772,401.5C 784.413,384.342 796.579,367.008 808.5,349.5C 823.5,348.833 838.5,348.167 853.5,347.5C 859.873,329.964 870.873,316.13 886.5,306C 893.88,302.044 901.547,299.211 909.5,297.5 Z M 916.5,332.5 C 939.437,332.766 951.77,344.433 953.5,367.5C 951.248,388.417 939.581,399.417 918.5,400.5C 897.939,398.248 886.939,386.748 885.5,366C 887.065,346.605 897.398,335.438 916.5,332.5 Z"/></g>
<g><path style="opacity:0.992" d="M 647.5,450.5 C 659.167,450.5 670.833,450.5 682.5,450.5C 682.5,462.167 682.5,473.833 682.5,485.5C 670.833,485.5 659.167,485.5 647.5,485.5C 647.5,473.833 647.5,462.167 647.5,450.5 Z"/></g>
<g><path style="opacity:0.993" d="M 927.5,484.5 C 967.179,483.666 992.679,502.333 1004,540.5C 1007.56,559.591 1003.56,576.925 992,592.5C 963.024,626.104 930.191,630.604 893.5,606C 882.158,596.467 874.491,584.634 870.5,570.5C 830.167,570.5 789.833,570.5 749.5,570.5C 749.5,558.833 749.5,547.167 749.5,535.5C 789.833,535.5 830.167,535.5 870.5,535.5C 879.804,507.523 898.804,490.523 927.5,484.5 Z M 930.5,519.5 C 954.73,518.224 968.064,529.724 970.5,554C 966.997,578.147 952.997,588.814 928.5,586C 910.518,580.008 902.018,567.508 903,548.5C 905.896,532.773 915.062,523.107 930.5,519.5 Z"/></g>
<g><path style="opacity:0.984" d="M 681.5,535.5 C 693.167,535.5 704.833,535.5 716.5,535.5C 716.5,547.167 716.5,558.833 716.5,570.5C 704.833,570.5 693.167,570.5 681.5,570.5C 681.5,558.833 681.5,547.167 681.5,535.5 Z"/></g>
<g><path style="opacity:0.971" d="M 647.5,620.5 C 659.167,620.5 670.833,620.5 682.5,620.5C 682.5,632.167 682.5,643.833 682.5,655.5C 670.833,655.5 659.167,655.5 647.5,655.5C 647.5,643.833 647.5,632.167 647.5,620.5 Z"/></g>
<g><path style="opacity:0.993" d="M 715.5,620.5 C 731.181,620.167 746.848,620.501 762.5,621.5C 784.893,654.562 806.893,687.896 828.5,721.5C 836.807,722.498 845.14,722.831 853.5,722.5C 855.541,713.084 859.708,704.751 866,697.5C 895.052,665.487 927.219,661.987 962.5,687C 991.362,713.663 995.862,743.83 976,777.5C 946.278,813.483 912.445,817.983 874.5,791C 864.61,782.057 857.61,771.224 853.5,758.5C 838.5,757.833 823.5,757.167 808.5,756.5C 799.667,742.833 790.833,729.167 782,715.5C 779.046,710.61 775.379,706.277 771,702.5C 763.173,685.684 753.339,670.184 741.5,656C 732.84,655.5 724.173,655.334 715.5,655.5C 715.5,643.833 715.5,632.167 715.5,620.5 Z M 918.5,705.5 C 940.745,706.912 952.412,718.745 953.5,741C 951.262,760.903 940.095,771.737 920,773.5C 892.366,769.515 881.7,753.849 888,726.5C 894.199,713.657 904.365,706.657 918.5,705.5 Z"/></g>
<g><path style="opacity:0.992" d="M 647.5,705.5 C 657.749,705.181 667.916,705.514 678,706.5C 688.52,724.879 700.52,742.212 714,758.5C 728.046,781.872 742.879,804.706 758.5,827C 789.968,818.045 816.468,825.878 838,850.5C 861.495,887.336 856.662,919.836 823.5,948C 807.504,959.001 789.838,963.001 770.5,960C 760.304,958.068 751.304,953.735 743.5,947C 711.206,919.355 706.372,887.522 729,851.5C 729.667,850.5 729.667,849.5 729,848.5C 705.559,812.727 681.725,777.227 657.5,742C 654.244,740.526 650.911,739.36 647.5,738.5C 647.5,727.5 647.5,716.5 647.5,705.5 Z M 778.5,858.5 C 807.434,859.262 819.934,873.928 816,902.5C 812.314,914.851 804.148,922.351 791.5,925C 775.528,927.798 763.028,922.631 754,909.5C 748.339,895.384 749.673,882.051 758,869.5C 763.855,863.825 770.689,860.158 778.5,858.5 Z"/></g>
<g><path style="opacity:0.992" d="M 545.5,1027.5 C 557.167,1027.5 568.833,1027.5 580.5,1027.5C 580.5,1050.5 580.5,1073.5 580.5,1096.5C 568.833,1096.5 557.167,1096.5 545.5,1096.5C 545.5,1073.5 545.5,1050.5 545.5,1027.5 Z"/></g>
</svg>
